<svg id="visual" viewBox="0 0 500 500" width="500" height="500" xmlns="http://www.w3.org/2000/svg" xmlns:xlink="http://www.w3.org/1999/xlink" version="1.1"><g transform="translate(194.65891015581394 257.3493007225494)"><path d="M191 -310.7C228.4 -273.1 226.6 -187.9 260.3 -117.8C294.1 -47.7 363.6 7.3 347.1 42.5C330.5 77.7 228 93.2 175.1 148.6C122.2 203.9 119 299.1 87.3 317.8C55.6 336.5 -4.6 278.6 -47.2 233C-89.8 187.5 -114.8 154.3 -131.1 121.4C-147.3 88.5 -154.9 55.9 -178 14.6C-201.1 -26.8 -239.7 -77 -238.9 -121.7C-238 -166.3 -197.7 -205.6 -151.3 -239.1C-104.9 -272.5 -52.4 -300.3 12.2 -319.2C76.8 -338.1 153.5 -348.2 191 -310.7" fill="#DF4D4D"></path></g></svg>