<svg id="visual" viewBox="0 0 900 900" width="900" height="900" xmlns="http://www.w3.org/2000/svg" xmlns:xlink="http://www.w3.org/1999/xlink" version="1.1"><g transform="translate(414.73125075122687 334.57379510523344)"><path d="M196.7 -244.5C291 -245.4 428.4 -251.9 479.3 -201.1C530.3 -150.2 494.8 -42.1 434.6 30.5C374.5 103.2 289.6 140.3 240.1 221.3C190.5 302.2 176.3 427 121.4 467.9C66.6 508.9 -28.8 466 -140.9 447.7C-252.9 429.4 -381.5 435.7 -419.5 373.7C-457.5 311.6 -405 181.1 -400.3 70.8C-395.6 -39.6 -438.9 -129.9 -407.7 -181.2C-376.5 -232.6 -271 -245 -190.6 -250.5C-110.3 -256 -55.1 -254.6 -2 -251.5C51.2 -248.4 102.4 -243.7 196.7 -244.5" fill="#DF4D4D"></path></g></svg>