<svg id="visual" viewBox="0 0 514 720" width="514" height="720" xmlns="http://www.w3.org/2000/svg" xmlns:xlink="http://www.w3.org/1999/xlink" version="1.1"><rect x="0" y="0" width="514" height="720" fill="#1D7775"></rect><g transform="translate(268.17709188499697 380.7776103539115)"><path d="M154 -212.6C200.6 -178.1 240.1 -134.5 245.1 -87.2C250.1 -39.9 220.5 11.1 194.7 54.8C168.8 98.5 146.7 135 114.9 167C83.1 199 41.5 226.5 -1 227.9C-43.5 229.2 -87 204.4 -137.9 178.6C-188.8 152.8 -247.2 126 -263.2 83.9C-279.1 41.7 -252.7 -15.9 -226.2 -66.1C-199.7 -116.2 -173 -158.8 -135.3 -196.2C-97.6 -233.6 -48.8 -265.8 2.4 -269.2C53.7 -272.6 107.4 -247.1 154 -212.6" fill="#DF4D4D"></path></g></svg>