<svg id="visual" viewBox="0 0 675 900" width="675" height="900" xmlns="http://www.w3.org/2000/svg" xmlns:xlink="http://www.w3.org/1999/xlink" version="1.1"><g transform="translate(373.03133389143807 451.96921782285966)"><path d="M186.7 -300.7C232.5 -261.1 253.6 -193.3 271.5 -130.8C289.4 -68.4 304.1 -11.3 304.7 49.9C305.4 111.1 292.2 176.4 255.5 224.7C218.8 273 158.7 304.4 94.9 323C31.2 341.6 -36.2 347.3 -85.9 320.1C-135.5 293 -167.4 232.8 -214.3 183.2C-261.2 133.6 -323.1 94.5 -353.9 36.5C-384.6 -21.5 -384.2 -98.4 -345.1 -146.6C-305.9 -194.8 -228.1 -214.3 -164.2 -245.6C-100.2 -276.9 -50.1 -320 10.2 -335.8C70.5 -351.6 140.9 -340.3 186.7 -300.7" fill="#DF4D4D"></path></g></svg>