<svg id="visual" viewBox="0 0 100 100" width="100" height="100" xmlns="http://www.w3.org/2000/svg" xmlns:xlink="http://www.w3.org/1999/xlink" version="1.1"><g transform="translate(50.52161231988655 49.08412545834683)"><path d="M25.2 -35.6C31.2 -30.3 33.7 -21 36.8 -11.9C39.9 -2.7 43.7 6.4 41.9 14.1C40.1 21.9 32.7 28.3 24.8 33.8C16.8 39.2 8.4 43.6 0.5 42.9C-7.3 42.1 -14.7 36.2 -21.8 30.5C-29 24.9 -35.9 19.4 -39.8 11.9C-43.7 4.3 -44.7 -5.3 -41.5 -13C-38.3 -20.7 -30.9 -26.5 -23.3 -31.2C-15.7 -35.9 -7.8 -39.5 0.9 -40.7C9.6 -41.9 19.2 -40.8 25.2 -35.6" fill="#DF4D4D"></path></g></svg>