<svg id="visual" viewBox="0 0 540 720" width="540" height="720" xmlns="http://www.w3.org/2000/svg" xmlns:xlink="http://www.w3.org/1999/xlink" version="1.1"><g transform="translate(280.95897734644086 345.94071463467264)"><path d="M155 -215.3C199.8 -180.7 234.5 -134.1 247.1 -83.2C259.7 -32.2 250.2 23 235.1 78.6C220.1 134.1 199.4 190 159.2 230C119.1 270 59.6 294 -3.3 298.5C-66.1 303 -132.3 288 -175.2 249C-218.2 209.9 -238 146.8 -254.3 85.3C-270.7 23.7 -283.7 -36.4 -267.3 -86.9C-250.9 -137.4 -205.1 -178.3 -155.6 -211.4C-106.2 -244.5 -53.1 -269.7 1 -271.1C55.1 -272.4 110.1 -249.9 155 -215.3" fill="#DF4D4D"></path></g></svg>