<svg id="visual" viewBox="0 0 1024 720" width="1024" height="720" xmlns="http://www.w3.org/2000/svg" xmlns:xlink="http://www.w3.org/1999/xlink" version="1.1"><rect x="0" y="0" width="1024" height="720" fill="#BBBE65"></rect><defs><linearGradient id="grad1_0" x1="29.7%" y1="0%" x2="100%" y2="100%"><stop offset="21.555555555555557%" stop-color="#ccce8c" stop-opacity="1"></stop><stop offset="78.44444444444446%" stop-color="#ccce8c" stop-opacity="1"></stop></linearGradient></defs><defs><linearGradient id="grad1_1" x1="29.7%" y1="0%" x2="100%" y2="100%"><stop offset="21.555555555555557%" stop-color="#ccce8c" stop-opacity="1"></stop><stop offset="78.44444444444446%" stop-color="#bbbe65" stop-opacity="1"></stop></linearGradient></defs><defs><linearGradient id="grad2_0" x1="0%" y1="0%" x2="70.3%" y2="100%"><stop offset="21.555555555555557%" stop-color="#ccce8c" stop-opacity="1"></stop><stop offset="78.44444444444446%" stop-color="#ccce8c" stop-opacity="1"></stop></linearGradient></defs><defs><linearGradient id="grad2_1" x1="0%" y1="0%" x2="70.3%" y2="100%"><stop offset="21.555555555555557%" stop-color="#bbbe65" stop-opacity="1"></stop><stop offset="78.44444444444446%" stop-color="#ccce8c" stop-opacity="1"></stop></linearGradient></defs><g transform="translate(1024, 0)"><path d="M0 438.1C-36.7 428.9 -73.4 419.7 -110.3 411.5C-147.2 403.3 -184.3 396.2 -219.1 379.4C-253.8 362.6 -286.3 336.1 -300.5 300.5C-314.8 264.9 -310.9 220.1 -324.8 187.5C-338.6 154.9 -370.3 134.3 -392.2 105.1C-414 75.8 -426.1 37.9 -438.1 0L0 0Z" fill="#c4c679"></path><path d="M0 219.1C-18.3 214.4 -36.7 209.8 -55.1 205.7C-73.6 201.7 -92.1 198.1 -109.5 189.7C-126.9 181.3 -143.1 168.1 -150.3 150.3C-157.4 132.4 -155.4 110.1 -162.4 93.8C-169.3 77.4 -185.2 67.2 -196.1 52.5C-207 37.9 -213 19 -219.1 0L0 0Z" fill="#ccce8c"></path></g><g transform="translate(0, 720)"><path d="M0 -438.1C37.4 -433.6 74.8 -429 112.3 -419.2C149.8 -409.4 187.4 -394.5 213 -368.9C238.6 -343.4 252.2 -307.2 283.5 -283.5C314.9 -259.9 364.1 -248.6 379.4 -219.1C394.8 -189.5 376.4 -141.5 380.6 -102C384.7 -62.4 411.4 -31.2 438.1 0L0 0Z" fill="#c4c679"></path><path d="M0 -219.1C18.7 -216.8 37.4 -214.5 56.2 -209.6C74.9 -204.7 93.7 -197.2 106.5 -184.5C119.3 -171.7 126.1 -153.6 141.8 -141.8C157.5 -129.9 182 -124.3 189.7 -109.5C197.4 -94.7 188.2 -70.8 190.3 -51C192.4 -31.2 205.7 -15.6 219.1 0L0 0Z" fill="#ccce8c"></path></g></svg>