<svg id="visual" viewBox="0 0 514 720" width="514" height="720" xmlns="http://www.w3.org/2000/svg" xmlns:xlink="http://www.w3.org/1999/xlink" version="1.1"><rect x="0" y="0" width="514" height="720" fill="#BBBE65"></rect><defs><linearGradient id="grad1_0" x1="0%" y1="0%" x2="100%" y2="100%"><stop offset="30%" stop-color="#ccce8c" stop-opacity="1"></stop><stop offset="70%" stop-color="#ccce8c" stop-opacity="1"></stop></linearGradient></defs><defs><linearGradient id="grad1_1" x1="0%" y1="0%" x2="100%" y2="100%"><stop offset="30%" stop-color="#ccce8c" stop-opacity="1"></stop><stop offset="70%" stop-color="#bbbe65" stop-opacity="1"></stop></linearGradient></defs><defs><linearGradient id="grad2_0" x1="0%" y1="0%" x2="100%" y2="100%"><stop offset="30%" stop-color="#ccce8c" stop-opacity="1"></stop><stop offset="70%" stop-color="#ccce8c" stop-opacity="1"></stop></linearGradient></defs><defs><linearGradient id="grad2_1" x1="0%" y1="0%" x2="100%" y2="100%"><stop offset="30%" stop-color="#bbbe65" stop-opacity="1"></stop><stop offset="70%" stop-color="#ccce8c" stop-opacity="1"></stop></linearGradient></defs><g transform="translate(514, 0)"><path d="M0 295C-48.8 287.1 -97.5 279.2 -152.5 264.1C-207.5 249 -268.7 226.7 -314.4 181.5C-360 136.3 -390.1 68.1 -420.2 0L0 0Z" fill="#c4c679"></path><path d="M0 147.5C-24.4 143.6 -48.8 139.6 -76.2 132.1C-103.7 124.5 -134.4 113.4 -157.2 90.8C-180 68.1 -195.1 34.1 -210.1 0L0 0Z" fill="#ccce8c"></path></g><g transform="translate(0, 720)"><path d="M0 -407C17.6 -306.9 35.2 -206.8 108 -187.1C180.8 -167.3 308.7 -227.9 363.9 -210.1C419.1 -192.3 401.6 -96.2 384 0L0 0Z" fill="#c4c679"></path><path d="M0 -203.5C8.8 -153.5 17.6 -103.4 54 -93.5C90.4 -83.7 154.4 -113.9 182 -105.1C209.6 -96.2 200.8 -48.1 192 0L0 0Z" fill="#ccce8c"></path></g></svg>