<svg id="visual" viewBox="0 0 1140 720" width="1140" height="720" xmlns="http://www.w3.org/2000/svg" xmlns:xlink="http://www.w3.org/1999/xlink" version="1.1"><rect x="0" y="0" width="1140" height="720" fill="#1D7775"></rect><defs><linearGradient id="grad1_0" x1="36.8%" y1="100%" x2="100%" y2="0%"><stop offset="18.333333333333336%" stop-color="#1d7775" stop-opacity="1"></stop><stop offset="81.66666666666666%" stop-color="#1d7775" stop-opacity="1"></stop></linearGradient></defs><defs><linearGradient id="grad2_0" x1="0%" y1="100%" x2="63.2%" y2="0%"><stop offset="18.333333333333336%" stop-color="#1d7775" stop-opacity="1"></stop><stop offset="81.66666666666666%" stop-color="#1d7775" stop-opacity="1"></stop></linearGradient></defs><g transform="translate(1140, 720)"><path d="M-471.9 0C-450 -76.5 -428 -153.1 -391.4 -226C-354.9 -298.9 -303.6 -368.3 -236 -408.7C-168.3 -449.1 -84.1 -460.5 0 -471.9L0 0Z" fill="#DF4D4D"></path></g><g transform="translate(0, 0)"><path d="M471.9 0C405.6 50.9 339.3 101.9 308.3 178C277.3 254.1 281.5 355.5 236 408.7C190.4 461.9 95.2 466.9 0 471.9L0 0Z" fill="#DF4D4D"></path></g></svg>