<svg id="visual" viewBox="0 0 720 1440" width="720" height="1440" xmlns="http://www.w3.org/2000/svg" xmlns:xlink="http://www.w3.org/1999/xlink" version="1.1"><rect x="0" y="0" width="720" height="1440" fill="#1D7775"></rect><defs><linearGradient id="grad1_0" x1="0%" y1="0%" x2="100%" y2="100%"><stop offset="30%" stop-color="#1d7775" stop-opacity="1"></stop><stop offset="70%" stop-color="#1d7775" stop-opacity="1"></stop></linearGradient></defs><defs><linearGradient id="grad2_0" x1="0%" y1="0%" x2="100%" y2="100%"><stop offset="30%" stop-color="#1d7775" stop-opacity="1"></stop><stop offset="70%" stop-color="#1d7775" stop-opacity="1"></stop></linearGradient></defs><g transform="translate(720, 0)"><path d="M0 504C-39.7 430.9 -79.4 357.8 -141.2 340.9C-203.1 324 -287.1 363.2 -347.2 347.2C-407.3 331.2 -443.5 259.9 -465.6 192.9C-487.8 125.8 -495.9 62.9 -504 0L0 0Z" fill="#DF4D4D"></path></g><g transform="translate(0, 1440)"><path d="M0 -504C69.4 -500 138.8 -496 192.9 -465.6C247 -435.3 285.8 -378.6 330.2 -330.2C374.6 -281.9 424.7 -241.9 454.5 -188.3C484.4 -134.6 494.2 -67.3 504 0L0 0Z" fill="#DF4D4D"></path></g></svg>